<svg xmlns="http://www.w3.org/2000/svg" viewBox="0 0 100 100" width="100" height="100">
<defs><radialGradient id="bgz" cx="50%" cy="38%" r="70%"><stop offset="0%" stop-color="#1b1f2a"/><stop offset="100%" stop-color="#0d0f15"/></radialGradient>
<linearGradient id="hz" x1="0" y1="0" x2="0" y2="1"><stop offset="0%" stop-color="#2a2f3d"/><stop offset="100%" stop-color="#171a23"/></linearGradient></defs>
<circle cx="50" cy="50" r="50" fill="url(#bgz)"/>
<!-- shoulders -->
<path d="M22 92 Q22 72 50 72 Q78 72 78 92 Z" fill="#222633"/>
<path d="M50 72 L50 92" stroke="#ff5c35" stroke-width="2"/>
<circle cx="50" cy="80" r="1.6" fill="#ff5c35"/>
<!-- neck -->
<rect x="44" y="60" width="12" height="12" rx="4" fill="#e8b48f"/>
<!-- head -->
<ellipse cx="50" cy="44" rx="20" ry="22" fill="#f0c19a"/>
<!-- hair -->
<path d="M30 40 Q30 20 50 20 Q70 20 70 40 Q70 30 62 27 Q58 20 50 21 Q42 20 38 27 Q30 30 30 40 Z" fill="#1c1a18"/>
<path d="M30 40 Q34 31 42 30 L40 38 Z" fill="#1c1a18"/>
<!-- beard -->
<path d="M33 48 Q33 66 50 66 Q67 66 67 48 Q63 58 50 58 Q37 58 33 48 Z" fill="#241f1c"/>
<!-- eyes -->
<circle cx="42" cy="44" r="2.4" fill="#1c1a18"/><circle cx="58" cy="44" r="2.4" fill="#1c1a18"/>
<circle cx="42.8" cy="43.2" r=".8" fill="#fff"/><circle cx="58.8" cy="43.2" r=".8" fill="#fff"/>
<!-- brows -->
<path d="M38 39 Q42 37 46 39" stroke="#1c1a18" stroke-width="1.6" fill="none" stroke-linecap="round"/>
<path d="M54 39 Q58 37 62 39" stroke="#1c1a18" stroke-width="1.6" fill="none" stroke-linecap="round"/>
<!-- smile -->
<path d="M44 52 Q50 56 56 52" stroke="#9c5b3f" stroke-width="1.8" fill="none" stroke-linecap="round"/>
<!-- headset -->
<path d="M28 44 Q28 24 50 24 Q72 24 72 44" stroke="#ff5c35" stroke-width="2.4" fill="none"/>
<rect x="25" y="42" width="6" height="10" rx="3" fill="#ff5c35"/>
<rect x="69" y="42" width="6" height="10" rx="3" fill="#ff5c35"/>
<path d="M28 50 Q22 54 30 58" stroke="#ff5c35" stroke-width="2" fill="none"/>
<circle cx="31" cy="59" r="1.8" fill="#39d0d8"/>
</svg>
